<?xml version="1.0" encoding="UTF-8"?>
<svg id="_レイヤー_1" data-name="レイヤー_1" xmlns="http://www.w3.org/2000/svg" version="1.1" viewBox="0 0 512 512">
  <!-- Generator: Adobe Illustrator 29.2.1, SVG Export Plug-In . SVG Version: 2.1.0 Build 116)  -->
  <defs>
    <style>
      .st0, .st1 {
        fill: #fff;
      }

      .st2 {
        fill: #2e3138;
      }

      .st3 {
        fill: none;
      }

      .st3, .st1 {
        stroke: #2e3138;
        stroke-miterlimit: 10;
        stroke-width: 30px;
      }
    </style>
  </defs>
  <g>
    <rect class="st0" x="47" y="47" width="418" height="418" rx="25" ry="25"/>
    <path class="st2" d="M440,62c5.5,0,10,4.5,10,10v368c0,5.5-4.5,10-10,10H72c-5.5,0-10-4.5-10-10V72c0-5.5,4.5-10,10-10h368M440,32H72c-22.1,0-40,17.9-40,40v368c0,22.1,17.9,40,40,40h368c22.1,0,40-17.9,40-40V72c0-22.1-17.9-40-40-40h0Z"/>
  </g>
  <g>
    <path class="st0" d="M328.3,196.5c-41.8-34.8-102.8-34.8-144.6,0-4.3,3.6-10.5,4.1-14.1.7-14.6-14.6-29.2-29.2-43.8-43.8-3.6-3.4-.8-12.1,6.8-18.4,71.4-59.4,175.5-59.4,246.8,0,7.6,6.3,10.4,14.9,6.8,18.4-14.6,14.6-29.2,29.2-43.8,43.8-3.6,3.5-9.7,2.9-14.1-.7Z"/>
    <path class="st3" d="M328.3,196.5c-41.8-34.8-102.8-34.8-144.6,0-4.3,3.6-10.5,4.1-14.1.7-14.6-14.6-29.2-29.2-43.8-43.8-3.6-3.4-.8-12.1,6.8-18.4,71.4-59.4,175.5-59.4,246.8,0,7.6,6.3,10.4,14.9,6.8,18.4-14.6,14.6-29.2,29.2-43.8,43.8-3.6,3.5-9.7,2.9-14.1-.7Z"/>
  </g>
  <line class="st1" x1="157.8" y1="123.5" x2="176" y2="149.7"/>
  <line class="st1" x1="200.2" y1="102.9" x2="216.3" y2="135.3"/>
  <line class="st1" x1="256" y1="93" x2="256" y2="134"/>
  <line class="st1" x1="355.2" y1="124.9" x2="337" y2="151.2"/>
  <line class="st1" x1="312.8" y1="104.3" x2="296.7" y2="136.8"/>
  <path class="st1" d="M102.6,327.2c5.6,7.4,60.1,76.4,153.9,74.9,91-1.4,142.9-68.1,148.8-76.1"/>
  <line class="st1" x1="139" y1="232" x2="139" y2="262"/>
  <line class="st1" x1="362" y1="232" x2="362" y2="262"/>
</svg>