<svg width="28" height="28" viewBox="0 0 28 28" fill="none" xmlns="http://www.w3.org/2000/svg">
<mask id="mask0_190_752" style="mask-type:alpha" maskUnits="userSpaceOnUse" x="0" y="0" width="28" height="28">
<rect width="28" height="28" fill="#D9D9D9"/>
</mask>
<g mask="url(#mask0_190_752)">
<path d="M13.9418 21C14.3502 21 14.6953 20.8591 14.9772 20.5771C15.2592 20.2952 15.4002 19.95 15.4002 19.5417C15.4002 19.1334 15.2592 18.7882 14.9772 18.5063C14.6953 18.2243 14.3502 18.0834 13.9418 18.0834C13.5335 18.0834 13.1884 18.2243 12.9064 18.5063C12.6245 18.7882 12.4835 19.1334 12.4835 19.5417C12.4835 19.95 12.6245 20.2952 12.9064 20.5771C13.1884 20.8591 13.5335 21 13.9418 21ZM12.8918 16.5084H15.0502C15.0502 15.8667 15.1231 15.3612 15.2689 14.9917C15.4147 14.6223 15.8279 14.1167 16.5085 13.475C17.0141 12.9695 17.4127 12.4882 17.7043 12.0313C17.996 11.5743 18.1418 11.025 18.1418 10.3834C18.1418 9.29449 17.7432 8.45837 16.946 7.87504C16.1488 7.29171 15.2057 7.00004 14.1168 7.00004C13.0085 7.00004 12.1092 7.29171 11.4189 7.87504C10.7286 8.45837 10.2474 9.15837 9.97516 9.97504L11.9002 10.7334C11.9974 10.3834 12.2161 10.0042 12.5564 9.59587C12.8967 9.18754 13.4168 8.98337 14.1168 8.98337C14.7391 8.98337 15.2057 9.15351 15.5168 9.49379C15.8279 9.83407 15.9835 10.2084 15.9835 10.6167C15.9835 11.0056 15.8668 11.3702 15.6335 11.7105C15.4002 12.0507 15.1085 12.3667 14.7585 12.6584C13.9029 13.4167 13.3779 13.9903 13.1835 14.3792C12.9891 14.7681 12.8918 15.4778 12.8918 16.5084ZM14.0002 25.6667C12.3863 25.6667 10.8696 25.3605 9.45016 24.748C8.03072 24.1355 6.796 23.3042 5.746 22.2542C4.696 21.2042 3.86475 19.9695 3.25225 18.55C2.63975 17.1306 2.3335 15.6139 2.3335 14C2.3335 12.3862 2.63975 10.8695 3.25225 9.45004C3.86475 8.0306 4.696 6.79587 5.746 5.74587C6.796 4.69587 8.03072 3.86462 9.45016 3.25212C10.8696 2.63962 12.3863 2.33337 14.0002 2.33337C15.6141 2.33337 17.1307 2.63962 18.5502 3.25212C19.9696 3.86462 21.2043 4.69587 22.2543 5.74587C23.3043 6.79587 24.1356 8.0306 24.7481 9.45004C25.3606 10.8695 25.6668 12.3862 25.6668 14C25.6668 15.6139 25.3606 17.1306 24.7481 18.55C24.1356 19.9695 23.3043 21.2042 22.2543 22.2542C21.2043 23.3042 19.9696 24.1355 18.5502 24.748C17.1307 25.3605 15.6141 25.6667 14.0002 25.6667ZM14.0002 23.3334C16.6057 23.3334 18.8127 22.4292 20.621 20.6209C22.4293 18.8125 23.3335 16.6056 23.3335 14C23.3335 11.3945 22.4293 9.18754 20.621 7.37921C18.8127 5.57087 16.6057 4.66671 14.0002 4.66671C11.3946 4.66671 9.18766 5.57087 7.37933 7.37921C5.571 9.18754 4.66683 11.3945 4.66683 14C4.66683 16.6056 5.571 18.8125 7.37933 20.6209C9.18766 22.4292 11.3946 23.3334 14.0002 23.3334Z" fill="#2E3138"/>
</g>
</svg>
