<svg width="28" height="28" viewBox="0 0 28 28" fill="none" xmlns="http://www.w3.org/2000/svg">
<mask id="mask0_190_750" style="mask-type:alpha" maskUnits="userSpaceOnUse" x="0" y="0" width="28" height="28">
<rect width="28" height="28" fill="#D9D9D9"/>
</mask>
<g mask="url(#mask0_190_750)">
<path d="M14 7.00004C13.3583 7.00004 12.809 6.77157 12.3521 6.31462C11.8951 5.85768 11.6667 5.30837 11.6667 4.66671C11.6667 4.02504 11.8951 3.47574 12.3521 3.01879C12.809 2.56185 13.3583 2.33337 14 2.33337C14.6417 2.33337 15.191 2.56185 15.6479 3.01879C16.1049 3.47574 16.3333 4.02504 16.3333 4.66671C16.3333 5.30837 16.1049 5.85768 15.6479 6.31462C15.191 6.77157 14.6417 7.00004 14 7.00004ZM10.5 25.6667V10.5C9.33333 10.4028 8.14722 10.257 6.94167 10.0625C5.73611 9.8681 4.58889 9.62504 3.5 9.33337L4.08333 7.00004C5.6 7.40837 7.21389 7.7049 8.925 7.88962C10.6361 8.07435 12.3278 8.16671 14 8.16671C15.6722 8.16671 17.3639 8.07435 19.075 7.88962C20.7861 7.7049 22.4 7.40837 23.9167 7.00004L24.5 9.33337C23.4111 9.62504 22.2639 9.8681 21.0583 10.0625C19.8528 10.257 18.6667 10.4028 17.5 10.5V25.6667H15.1667V18.6667H12.8333V25.6667H10.5Z" fill="#2E3138"/>
</g>
</svg>
