<svg width="28" height="28" viewBox="0 0 28 28" fill="none" xmlns="http://www.w3.org/2000/svg">
<mask id="mask0_190_751" style="mask-type:alpha" maskUnits="userSpaceOnUse" x="0" y="0" width="28" height="28">
<rect width="28" height="28" fill="#D9D9D9"/>
</mask>
<g mask="url(#mask0_190_751)">
<path d="M6.82516 19.95C7.81683 19.1917 8.92516 18.5938 10.1502 18.1563C11.3752 17.7188 12.6585 17.5 14.0002 17.5C15.3418 17.5 16.6252 17.7188 17.8502 18.1563C19.0752 18.5938 20.1835 19.1917 21.1752 19.95C21.8557 19.1528 22.3856 18.2487 22.7647 17.2375C23.1439 16.2264 23.3335 15.1473 23.3335 14C23.3335 11.4139 22.4245 9.21185 20.6064 7.39379C18.7884 5.57574 16.5863 4.66671 14.0002 4.66671C11.4141 4.66671 9.21197 5.57574 7.39391 7.39379C5.57586 9.21185 4.66683 11.4139 4.66683 14C4.66683 15.1473 4.85641 16.2264 5.23558 17.2375C5.61475 18.2487 6.14461 19.1528 6.82516 19.95ZM14.0002 15.1667C12.8529 15.1667 11.8856 14.773 11.0981 13.9855C10.3106 13.198 9.91683 12.2306 9.91683 11.0834C9.91683 9.93615 10.3106 8.96879 11.0981 8.18129C11.8856 7.39379 12.8529 7.00004 14.0002 7.00004C15.1474 7.00004 16.1147 7.39379 16.9022 8.18129C17.6897 8.96879 18.0835 9.93615 18.0835 11.0834C18.0835 12.2306 17.6897 13.198 16.9022 13.9855C16.1147 14.773 15.1474 15.1667 14.0002 15.1667ZM14.0002 25.6667C12.3863 25.6667 10.8696 25.3605 9.45016 24.748C8.03072 24.1355 6.796 23.3042 5.746 22.2542C4.696 21.2042 3.86475 19.9695 3.25225 18.55C2.63975 17.1306 2.3335 15.6139 2.3335 14C2.3335 12.3862 2.63975 10.8695 3.25225 9.45004C3.86475 8.0306 4.696 6.79587 5.746 5.74587C6.796 4.69587 8.03072 3.86462 9.45016 3.25212C10.8696 2.63962 12.3863 2.33337 14.0002 2.33337C15.6141 2.33337 17.1307 2.63962 18.5502 3.25212C19.9696 3.86462 21.2043 4.69587 22.2543 5.74587C23.3043 6.79587 24.1356 8.0306 24.7481 9.45004C25.3606 10.8695 25.6668 12.3862 25.6668 14C25.6668 15.6139 25.3606 17.1306 24.7481 18.55C24.1356 19.9695 23.3043 21.2042 22.2543 22.2542C21.2043 23.3042 19.9696 24.1355 18.5502 24.748C17.1307 25.3605 15.6141 25.6667 14.0002 25.6667ZM14.0002 23.3334C15.0307 23.3334 16.0029 23.1827 16.9168 22.8813C17.8307 22.5799 18.6668 22.1473 19.4252 21.5834C18.6668 21.0195 17.8307 20.5868 16.9168 20.2855C16.0029 19.9841 15.0307 19.8334 14.0002 19.8334C12.9696 19.8334 11.9974 19.9841 11.0835 20.2855C10.1696 20.5868 9.3335 21.0195 8.57516 21.5834C9.3335 22.1473 10.1696 22.5799 11.0835 22.8813C11.9974 23.1827 12.9696 23.3334 14.0002 23.3334ZM14.0002 12.8334C14.5057 12.8334 14.9238 12.6681 15.2543 12.3375C15.5849 12.007 15.7502 11.5889 15.7502 11.0834C15.7502 10.5778 15.5849 10.1598 15.2543 9.82921C14.9238 9.49865 14.5057 9.33337 14.0002 9.33337C13.4946 9.33337 13.0766 9.49865 12.746 9.82921C12.4154 10.1598 12.2502 10.5778 12.2502 11.0834C12.2502 11.5889 12.4154 12.007 12.746 12.3375C13.0766 12.6681 13.4946 12.8334 14.0002 12.8334Z" fill="#2E3138"/>
</g>
</svg>
